<svg width="572" height="512" viewBox="0 0 572 512" fill="none" xmlns="http://www.w3.org/2000/svg">
<g clip-path="url(#clip0_151_24)">
<path d="M32.8394 192H538.281C556.396 192 571.12 175.5 571.12 155.2C571.12 147.9 569.157 140.8 565.587 134.8L498.124 21.4C490.182 8 476.885 0 462.518 0H108.602C94.324 0 80.9384 8 72.9963 21.4L5.53272 134.7C1.96322 140.8 0 147.9 0 155.1C0 175.5 14.7242 192 32.8394 192ZM57.112 224V384V464C57.112 490.5 76.2981 512 99.946 512H299.838C323.486 512 342.672 490.5 342.672 464V384V224H285.56V384H114.224V224H57.112ZM456.896 224V480C456.896 497.7 469.657 512 485.452 512C501.247 512 514.008 497.7 514.008 480V224H456.896Z" fill="#EC9C00"/>
</g>
<defs>
<clipPath id="clip0_151_24">
<rect width="571.12" height="512" fill="white"/>
</clipPath>
</defs>
</svg>
