<svg width="241" height="60" viewBox="0 0 241 60" fill="none" xmlns="http://www.w3.org/2000/svg">
<path d="M87.805 40H82.73L81.33 35.695H72.965L71.6 40H66.525L74.505 17.18C74.855 16.3867 75.24 15.8383 75.66 15.535C76.1033 15.2317 76.64 15.08 77.27 15.08C77.9 15.08 78.4017 15.22 78.775 15.5C79.1717 15.78 79.5217 16.34 79.825 17.18L87.805 40ZM80.21 31.6L77.27 21.73L74.19 31.6H80.21ZM106.589 40H99.1693C96.3693 40 94.3393 39.4633 93.0793 38.39C91.8427 37.2933 91.2243 35.52 91.2243 33.07V15.08H96.0893V33.07C96.0893 34.05 96.311 34.7267 96.7543 35.1C97.1977 35.4733 98.0027 35.66 99.1693 35.66H106.589V40ZM126.883 19.42H118.098C117.071 19.42 116.348 19.6183 115.928 20.015C115.531 20.4117 115.333 21.1 115.333 22.08V25.545H124.468L124.118 29.885H115.333V40H110.468V20.155C110.468 18.3117 110.864 17.005 111.658 16.235C112.474 15.465 113.863 15.08 115.823 15.08H126.883V19.42ZM150.012 40H144.937L143.537 35.695H135.172L133.807 40H128.732L136.712 17.18C137.062 16.3867 137.447 15.8383 137.867 15.535C138.31 15.2317 138.847 15.08 139.477 15.08C140.107 15.08 140.609 15.22 140.982 15.5C141.379 15.78 141.729 16.34 142.032 17.18L150.012 40ZM142.417 31.6L139.477 21.73L136.397 31.6H142.417ZM161.621 40H158.786C157.06 40 155.741 39.4867 154.831 38.46C153.945 37.4333 153.501 36.2083 153.501 34.785V24.285H151.576V20.82H153.501V16.9H158.051V20.82H161.271V24.285H158.051V34.505C158.051 35.6017 158.576 36.15 159.626 36.15H161.621V40ZM167.696 12.385C168.793 12.385 169.504 12.56 169.831 12.91C170.158 13.2367 170.321 13.9483 170.321 15.045C170.321 16.1183 170.146 16.83 169.796 17.18C169.469 17.5067 168.758 17.67 167.661 17.67C166.588 17.67 165.876 17.495 165.526 17.145C165.199 16.795 165.036 16.0833 165.036 15.01C165.036 13.9367 165.199 13.2367 165.526 12.91C165.876 12.56 166.599 12.385 167.696 12.385ZM169.936 40H165.386V20.75H169.936V40ZM190.46 40H185.91V27.47C185.91 25.3233 185.07 24.25 183.39 24.25L179.05 25.965V40H174.5V13.68H179.05V22.395L184.825 19.805C186.878 19.805 188.325 20.3883 189.165 21.555C190.028 22.7217 190.46 24.355 190.46 26.455V40ZM208.706 40H205.661L204.261 37.585L199.396 40.21C196.69 40.21 194.87 39.23 193.936 37.27C193.47 36.3133 193.143 35.2867 192.956 34.19C192.793 33.07 192.711 31.915 192.711 30.725C192.711 29.5117 192.723 28.625 192.746 28.065C192.77 27.4817 192.828 26.8167 192.921 26.07C193.015 25.3 193.143 24.6583 193.306 24.145C193.493 23.6317 193.75 23.1067 194.076 22.57C194.403 22.01 194.8 21.5667 195.266 21.24C196.316 20.5167 197.681 20.155 199.361 20.155H204.156L208.706 19.875V40ZM204.156 33.63V24.25H200.691C199.408 24.25 198.51 24.74 197.996 25.72C197.506 26.7 197.261 28.17 197.261 30.13C197.261 32.0667 197.495 33.4317 197.961 34.225C198.451 35.0183 199.361 35.415 200.691 35.415L204.156 33.63ZM229.083 40H224.533V27.47C224.533 25.3233 223.693 24.25 222.013 24.25L217.673 25.965V40H213.123V13.68H217.673V22.395L223.448 19.805C225.501 19.805 226.948 20.3883 227.788 21.555C228.651 22.7217 229.083 24.355 229.083 26.455V40Z" fill="#EC9C00"/>
<g clip-path="url(#clip0_151_21)">
<path d="M3.1625 20.625H51.8375C53.582 20.625 55 18.8525 55 16.6719C55 15.8877 54.8109 15.125 54.4672 14.4805L47.9703 2.29883C47.2055 0.859375 45.925 0 44.5414 0H10.4586C9.08359 0 7.79453 0.859375 7.02969 2.29883L0.532812 14.4697C0.189062 15.125 0 15.8877 0 16.6611C0 18.8525 1.41797 20.625 3.1625 20.625ZM5.5 24.0625V41.25V49.8438C5.5 52.6904 7.34766 55 9.625 55H28.875C31.1523 55 33 52.6904 33 49.8438V41.25V24.0625H27.5V41.25H11V24.0625H5.5ZM44 24.0625V51.5625C44 53.4639 45.2289 55 46.75 55C48.2711 55 49.5 53.4639 49.5 51.5625V24.0625H44Z" fill="#EC9C00"/>
</g>
<defs>
<clipPath id="clip0_151_21">
<rect width="55" height="55" fill="white"/>
</clipPath>
</defs>
</svg>
